<?xml version="1.0" encoding="UTF-8"?>
<svg width="32px" height="32px" viewBox="0 0 32 32" version="1.1" xmlns="http://www.w3.org/2000/svg" xmlns:xlink="http://www.w3.org/1999/xlink">
    <!-- Generator: Sketch 48.2 (47327) - http://www.bohemiancoding.com/sketch -->
    <title>Icons/Black/close_black</title>
    <desc>Created with Sketch.</desc>
    <defs></defs>
    <g id="05-4_registered-event_recommend" stroke="none" stroke-width="1" fill="none" fill-rule="evenodd" transform="translate(-1154.000000, -538.000000)">
        <g id="popup" transform="translate(238.000000, 522.000000)" fill="#021411">
            <g id="Icons/Black/close_black" transform="translate(916.000000, 16.000000)">
                <g id="Icons/black/close">
                    <path d="M16,2 C8.28,2 2,8.28 2,16 C2,23.72 8.28,30 16,30 C23.72,30 30,23.72 30,16 C30,8.28 23.72,2 16,2 Z M16,32 C7.178,32 0,24.82 0,16 C0,7.18 7.178,0 16,0 C24.822,0 32,7.18 32,16 C32,24.82 24.822,32 16,32 Z" id="Fill-652"></path>
                    <polygon id="Fill-653" points="11.293 19.29 19.293 11.29 20.707 12.71 12.707 20.71"></polygon>
                    <polyline id="Fill-654" points="19.293 20.71 11.293 12.71 12.707 11.29 20.707 19.29 19.293 20.71"></polyline>
                </g>
            </g>
        </g>
    </g>
</svg>